  0
SECTION
  2
BLOCKS
  0
ENDSEC
  0
SECTION
  2
ENTITIES
  0
LINE
  8
0
 10
190.5
 20
34.7
 11
0
 21
34.7
  0
LINE
  8
0
 10
0
 20
34.7
 11
0
 21
0
  0
LINE
  8
0
 10
0
 20
0
 11
190.5
 21
0
  0
LINE
  8
0
 10
190.5
 20
0
 11
190.5
 21
34.7
  0
LINE
  8
0
 10
140.995
 20
10.25
 11
140.995
 21
24.45
  0
LINE
  8
0
 10
140.995
 20
24.45
 11
174.755
 21
24.45
  0
LINE
  8
0
 10
174.755
 20
24.45
 11
174.755
 21
10.25
  0
LINE
  8
0
 10
174.755
 20
10.25
 11
140.995
 21
10.25
  0
LINE
  8
0
 10
14.6923
 20
12.4597
 11
14.3859
 21
12.4886
  0
LINE
  8
0
 10
14.3859
 20
12.4886
 11
14.0818
 21
12.5368
  0
LINE
  8
0
 10
14.0818
 20
12.5368
 11
13.7814
 21
12.6039
  0
LINE
  8
0
 10
13.7814
 20
12.6039
 11
13.4858
 21
12.6898
  0
LINE
  8
0
 10
13.4858
 20
12.6898
 11
13.1962
 21
12.7941
  0
LINE
  8
0
 10
13.1962
 20
12.7941
 11
12.9137
 21
12.9164
  0
LINE
  8
0
 10
12.9137
 20
12.9164
 11
12.6394
 21
13.0561
  0
LINE
  8
0
 10
12.6394
 20
13.0561
 11
12.3745
 21
13.2128
  0
LINE
  8
0
 10
12.3745
 20
13.2128
 11
12.1199
 21
13.3858
  0
LINE
  8
0
 10
12.1199
 20
13.3858
 11
11.8766
 21
13.5745
  0
LINE
  8
0
 10
11.8766
 20
13.5745
 11
11.6457
 21
13.778
  0
LINE
  8
0
 10
11.6457
 20
13.778
 11
11.4281
 21
13.9957
  0
LINE
  8
0
 10
11.4281
 20
13.9957
 11
11.31
 21
14.1296
  0
LINE
  8
0
 10
11.31
 20
14.1296
 11
11.31
 21
20.5704
  0
LINE
  8
0
 10
11.31
 20
20.5704
 11
11.4281
 21
20.7043
  0
LINE
  8
0
 10
11.4281
 20
20.7043
 11
11.6457
 21
20.9219
  0
LINE
  8
0
 10
11.6457
 20
20.9219
 11
11.8766
 21
21.1255
  0
LINE
  8
0
 10
11.8766
 20
21.1255
 11
12.1199
 21
21.3142
  0
LINE
  8
0
 10
12.1199
 20
21.3142
 11
12.3745
 21
21.4872
  0
LINE
  8
0
 10
12.3745
 20
21.4872
 11
12.6394
 21
21.6439
  0
LINE
  8
0
 10
12.6394
 20
21.6439
 11
12.9137
 21
21.7836
  0
LINE
  8
0
 10
12.9137
 20
21.7836
 11
13.1962
 21
21.9059
  0
LINE
  8
0
 10
13.1962
 20
21.9059
 11
13.4858
 21
22.0102
  0
LINE
  8
0
 10
13.4858
 20
22.0102
 11
13.7814
 21
22.096
  0
LINE
  8
0
 10
13.7814
 20
22.096
 11
14.0818
 21
22.1632
  0
LINE
  8
0
 10
14.0818
 20
22.1632
 11
14.3859
 21
22.2113
  0
LINE
  8
0
 10
14.3859
 20
22.2113
 11
14.6923
 21
22.2403
  0
LINE
  8
0
 10
14.6923
 20
22.2403
 11
15
 21
22.25
  0
LINE
  8
0
 10
15
 20
22.25
 11
15.3077
 21
22.2403
  0
LINE
  8
0
 10
15.3077
 20
22.2403
 11
15.6141
 21
22.2113
  0
LINE
  8
0
 10
15.6141
 20
22.2113
 11
15.9182
 21
22.1632
  0
LINE
  8
0
 10
15.9182
 20
22.1632
 11
16.2186
 21
22.096
  0
LINE
  8
0
 10
16.2186
 20
22.096
 11
16.5142
 21
22.0102
  0
LINE
  8
0
 10
16.5142
 20
22.0102
 11
16.8038
 21
21.9059
  0
LINE
  8
0
 10
16.8038
 20
21.9059
 11
17.0863
 21
21.7836
  0
LINE
  8
0
 10
17.0863
 20
21.7836
 11
17.3606
 21
21.6439
  0
LINE
  8
0
 10
17.3606
 20
21.6439
 11
17.6255
 21
21.4872
  0
LINE
  8
0
 10
17.6255
 20
21.4872
 11
17.8801
 21
21.3142
  0
LINE
  8
0
 10
17.8801
 20
21.3142
 11
18.1234
 21
21.1255
  0
LINE
  8
0
 10
18.1234
 20
21.1255
 11
18.3543
 21
20.9219
  0
LINE
  8
0
 10
18.3543
 20
20.9219
 11
18.5719
 21
20.7043
  0
LINE
  8
0
 10
18.5719
 20
20.7043
 11
18.7755
 21
20.4734
  0
LINE
  8
0
 10
18.7755
 20
20.4734
 11
18.9642
 21
20.2301
  0
LINE
  8
0
 10
18.9642
 20
20.2301
 11
19.1372
 21
19.9755
  0
LINE
  8
0
 10
19.1372
 20
19.9755
 11
19.2939
 21
19.7106
  0
LINE
  8
0
 10
19.2939
 20
19.7106
 11
19.4336
 21
19.4363
  0
LINE
  8
0
 10
19.4336
 20
19.4363
 11
19.5559
 21
19.1538
  0
LINE
  8
0
 10
19.5559
 20
19.1538
 11
19.6602
 21
18.8642
  0
LINE
  8
0
 10
19.6602
 20
18.8642
 11
19.746
 21
18.5686
  0
LINE
  8
0
 10
19.746
 20
18.5686
 11
19.8132
 21
18.2682
  0
LINE
  8
0
 10
19.8132
 20
18.2682
 11
19.8614
 21
17.9641
  0
LINE
  8
0
 10
19.8614
 20
17.9641
 11
19.8903
 21
17.6577
  0
LINE
  8
0
 10
19.8903
 20
17.6577
 11
19.9
 21
17.35
  0
LINE
  8
0
 10
19.9
 20
17.35
 11
19.8903
 21
17.0423
  0
LINE
  8
0
 10
19.8903
 20
17.0423
 11
19.8614
 21
16.7359
  0
LINE
  8
0
 10
19.8614
 20
16.7359
 11
19.8132
 21
16.4318
  0
LINE
  8
0
 10
19.8132
 20
16.4318
 11
19.746
 21
16.1314
  0
LINE
  8
0
 10
19.746
 20
16.1314
 11
19.6602
 21
15.8358
  0
LINE
  8
0
 10
19.6602
 20
15.8358
 11
19.5559
 21
15.5462
  0
LINE
  8
0
 10
19.5559
 20
15.5462
 11
19.4336
 21
15.2637
  0
LINE
  8
0
 10
19.4336
 20
15.2637
 11
19.2939
 21
14.9894
  0
LINE
  8
0
 10
19.2939
 20
14.9894
 11
19.1372
 21
14.7244
  0
LINE
  8
0
 10
19.1372
 20
14.7244
 11
18.9642
 21
14.4698
  0
LINE
  8
0
 10
18.9642
 20
14.4698
 11
18.7755
 21
14.2266
  0
LINE
  8
0
 10
18.7755
 20
14.2266
 11
18.5719
 21
13.9957
  0
LINE
  8
0
 10
18.5719
 20
13.9957
 11
18.3543
 21
13.778
  0
LINE
  8
0
 10
18.3543
 20
13.778
 11
18.1234
 21
13.5745
  0
LINE
  8
0
 10
18.1234
 20
13.5745
 11
17.8801
 21
13.3858
  0
LINE
  8
0
 10
17.8801
 20
13.3858
 11
17.6255
 21
13.2128
  0
LINE
  8
0
 10
17.6255
 20
13.2128
 11
17.3606
 21
13.0561
  0
LINE
  8
0
 10
17.3606
 20
13.0561
 11
17.0863
 21
12.9164
  0
LINE
  8
0
 10
17.0863
 20
12.9164
 11
16.8038
 21
12.7941
  0
LINE
  8
0
 10
16.8038
 20
12.7941
 11
16.5142
 21
12.6898
  0
LINE
  8
0
 10
16.5142
 20
12.6898
 11
16.2186
 21
12.6039
  0
LINE
  8
0
 10
16.2186
 20
12.6039
 11
15.9182
 21
12.5368
  0
LINE
  8
0
 10
15.9182
 20
12.5368
 11
15.6141
 21
12.4886
  0
LINE
  8
0
 10
15.6141
 20
12.4886
 11
15.3076
 21
12.4597
  0
LINE
  8
0
 10
15.3076
 20
12.4597
 11
15
 21
12.45
  0
LINE
  8
0
 10
15
 20
12.45
 11
14.6923
 21
12.4597
  0
LINE
  8
0
 10
33.7423
 20
12.4597
 11
33.4359
 21
12.4886
  0
LINE
  8
0
 10
33.4359
 20
12.4886
 11
33.1318
 21
12.5368
  0
LINE
  8
0
 10
33.1318
 20
12.5368
 11
32.8314
 21
12.6039
  0
LINE
  8
0
 10
32.8314
 20
12.6039
 11
32.5358
 21
12.6898
  0
LINE
  8
0
 10
32.5358
 20
12.6898
 11
32.2462
 21
12.7941
  0
LINE
  8
0
 10
32.2462
 20
12.7941
 11
31.9637
 21
12.9164
  0
LINE
  8
0
 10
31.9637
 20
12.9164
 11
31.6894
 21
13.0561
  0
LINE
  8
0
 10
31.6894
 20
13.0561
 11
31.4244
 21
13.2128
  0
LINE
  8
0
 10
31.4244
 20
13.2128
 11
31.1698
 21
13.3858
  0
LINE
  8
0
 10
31.1698
 20
13.3858
 11
30.9266
 21
13.5745
  0
LINE
  8
0
 10
30.9266
 20
13.5745
 11
30.6957
 21
13.778
  0
LINE
  8
0
 10
30.6957
 20
13.778
 11
30.478
 21
13.9957
  0
LINE
  8
0
 10
30.478
 20
13.9957
 11
30.36
 21
14.1296
  0
LINE
  8
0
 10
30.36
 20
14.1296
 11
30.36
 21
20.5704
  0
LINE
  8
0
 10
30.36
 20
20.5704
 11
30.478
 21
20.7043
  0
LINE
  8
0
 10
30.478
 20
20.7043
 11
30.6957
 21
20.9219
  0
LINE
  8
0
 10
30.6957
 20
20.9219
 11
30.9266
 21
21.1255
  0
LINE
  8
0
 10
30.9266
 20
21.1255
 11
31.1698
 21
21.3142
  0
LINE
  8
0
 10
31.1698
 20
21.3142
 11
31.4244
 21
21.4872
  0
LINE
  8
0
 10
31.4244
 20
21.4872
 11
31.6894
 21
21.6439
  0
LINE
  8
0
 10
31.6894
 20
21.6439
 11
31.9637
 21
21.7836
  0
LINE
  8
0
 10
31.9637
 20
21.7836
 11
32.2462
 21
21.9059
  0
LINE
  8
0
 10
32.2462
 20
21.9059
 11
32.5358
 21
22.0102
  0
LINE
  8
0
 10
32.5358
 20
22.0102
 11
32.8314
 21
22.096
  0
LINE
  8
0
 10
32.8314
 20
22.096
 11
33.1318
 21
22.1632
  0
LINE
  8
0
 10
33.1318
 20
22.1632
 11
33.4359
 21
22.2113
  0
LINE
  8
0
 10
33.4359
 20
22.2113
 11
33.7423
 21
22.2403
  0
LINE
  8
0
 10
33.7423
 20
22.2403
 11
34.05
 21
22.25
  0
LINE
  8
0
 10
34.05
 20
22.25
 11
34.3577
 21
22.2403
  0
LINE
  8
0
 10
34.3577
 20
22.2403
 11
34.6641
 21
22.2113
  0
LINE
  8
0
 10
34.6641
 20
22.2113
 11
34.9682
 21
22.1632
  0
LINE
  8
0
 10
34.9682
 20
22.1632
 11
35.2686
 21
22.096
  0
LINE
  8
0
 10
35.2686
 20
22.096
 11
35.5642
 21
22.0102
  0
LINE
  8
0
 10
35.5642
 20
22.0102
 11
35.8538
 21
21.9059
  0
LINE
  8
0
 10
35.8538
 20
21.9059
 11
36.1363
 21
21.7836
  0
LINE
  8
0
 10
36.1363
 20
21.7836
 11
36.4106
 21
21.6439
  0
LINE
  8
0
 10
36.4106
 20
21.6439
 11
36.6755
 21
21.4872
  0
LINE
  8
0
 10
36.6755
 20
21.4872
 11
36.9301
 21
21.3142
  0
LINE
  8
0
 10
36.9301
 20
21.3142
 11
37.1734
 21
21.1255
  0
LINE
  8
0
 10
37.1734
 20
21.1255
 11
37.4043
 21
20.9219
  0
LINE
  8
0
 10
37.4043
 20
20.9219
 11
37.6219
 21
20.7043
  0
LINE
  8
0
 10
37.6219
 20
20.7043
 11
37.8255
 21
20.4734
  0
LINE
  8
0
 10
37.8255
 20
20.4734
 11
38.0142
 21
20.2301
  0
LINE
  8
0
 10
38.0142
 20
20.2301
 11
38.1872
 21
19.9755
  0
LINE
  8
0
 10
38.1872
 20
19.9755
 11
38.3439
 21
19.7106
  0
LINE
  8
0
 10
38.3439
 20
19.7106
 11
38.4836
 21
19.4363
  0
LINE
  8
0
 10
38.4836
 20
19.4363
 11
38.6059
 21
19.1538
  0
LINE
  8
0
 10
38.6059
 20
19.1538
 11
38.7102
 21
18.8642
  0
LINE
  8
0
 10
38.7102
 20
18.8642
 11
38.796
 21
18.5686
  0
LINE
  8
0
 10
38.796
 20
18.5686
 11
38.8632
 21
18.2682
  0
LINE
  8
0
 10
38.8632
 20
18.2682
 11
38.9113
 21
17.9641
  0
LINE
  8
0
 10
38.9113
 20
17.9641
 11
38.9403
 21
17.6577
  0
LINE
  8
0
 10
38.9403
 20
17.6577
 11
38.95
 21
17.35
  0
LINE
  8
0
 10
38.95
 20
17.35
 11
38.9403
 21
17.0423
  0
LINE
  8
0
 10
38.9403
 20
17.0423
 11
38.9113
 21
16.7359
  0
LINE
  8
0
 10
38.9113
 20
16.7359
 11
38.8632
 21
16.4318
  0
LINE
  8
0
 10
38.8632
 20
16.4318
 11
38.796
 21
16.1314
  0
LINE
  8
0
 10
38.796
 20
16.1314
 11
38.7102
 21
15.8358
  0
LINE
  8
0
 10
38.7102
 20
15.8358
 11
38.6059
 21
15.5462
  0
LINE
  8
0
 10
38.6059
 20
15.5462
 11
38.4836
 21
15.2637
  0
LINE
  8
0
 10
38.4836
 20
15.2637
 11
38.3439
 21
14.9894
  0
LINE
  8
0
 10
38.3439
 20
14.9894
 11
38.1872
 21
14.7244
  0
LINE
  8
0
 10
38.1872
 20
14.7244
 11
38.0142
 21
14.4698
  0
LINE
  8
0
 10
38.0142
 20
14.4698
 11
37.8255
 21
14.2266
  0
LINE
  8
0
 10
37.8255
 20
14.2266
 11
37.6219
 21
13.9957
  0
LINE
  8
0
 10
37.6219
 20
13.9957
 11
37.4043
 21
13.778
  0
LINE
  8
0
 10
37.4043
 20
13.778
 11
37.1734
 21
13.5745
  0
LINE
  8
0
 10
37.1734
 20
13.5745
 11
36.9301
 21
13.3858
  0
LINE
  8
0
 10
36.9301
 20
13.3858
 11
36.6755
 21
13.2128
  0
LINE
  8
0
 10
36.6755
 20
13.2128
 11
36.4106
 21
13.0561
  0
LINE
  8
0
 10
36.4106
 20
13.0561
 11
36.1363
 21
12.9164
  0
LINE
  8
0
 10
36.1363
 20
12.9164
 11
35.8538
 21
12.7941
  0
LINE
  8
0
 10
35.8538
 20
12.7941
 11
35.5642
 21
12.6898
  0
LINE
  8
0
 10
35.5642
 20
12.6898
 11
35.2686
 21
12.6039
  0
LINE
  8
0
 10
35.2686
 20
12.6039
 11
34.9682
 21
12.5368
  0
LINE
  8
0
 10
34.9682
 20
12.5368
 11
34.6641
 21
12.4886
  0
LINE
  8
0
 10
34.6641
 20
12.4886
 11
34.3577
 21
12.4597
  0
LINE
  8
0
 10
34.3577
 20
12.4597
 11
34.05
 21
12.45
  0
LINE
  8
0
 10
34.05
 20
12.45
 11
33.7423
 21
12.4597
  0
LINE
  8
0
 10
52.7923
 20
12.4597
 11
52.4859
 21
12.4886
  0
LINE
  8
0
 10
52.4859
 20
12.4886
 11
52.1818
 21
12.5368
  0
LINE
  8
0
 10
52.1818
 20
12.5368
 11
51.8814
 21
12.6039
  0
LINE
  8
0
 10
51.8814
 20
12.6039
 11
51.5858
 21
12.6898
  0
LINE
  8
0
 10
51.5858
 20
12.6898
 11
51.2962
 21
12.7941
  0
LINE
  8
0
 10
51.2962
 20
12.7941
 11
51.0137
 21
12.9164
  0
LINE
  8
0
 10
51.0137
 20
12.9164
 11
50.7394
 21
13.0561
  0
LINE
  8
0
 10
50.7394
 20
13.0561
 11
50.4744
 21
13.2128
  0
LINE
  8
0
 10
50.4744
 20
13.2128
 11
50.2198
 21
13.3858
  0
LINE
  8
0
 10
50.2198
 20
13.3858
 11
49.9766
 21
13.5745
  0
LINE
  8
0
 10
49.9766
 20
13.5745
 11
49.7457
 21
13.778
  0
LINE
  8
0
 10
49.7457
 20
13.778
 11
49.528
 21
13.9957
  0
LINE
  8
0
 10
49.528
 20
13.9957
 11
49.41
 21
14.1296
  0
LINE
  8
0
 10
49.41
 20
14.1296
 11
49.41
 21
20.5704
  0
LINE
  8
0
 10
49.41
 20
20.5704
 11
49.528
 21
20.7043
  0
LINE
  8
0
 10
49.528
 20
20.7043
 11
49.7457
 21
20.9219
  0
LINE
  8
0
 10
49.7457
 20
20.9219
 11
49.9766
 21
21.1255
  0
LINE
  8
0
 10
49.9766
 20
21.1255
 11
50.2198
 21
21.3142
  0
LINE
  8
0
 10
50.2198
 20
21.3142
 11
50.4744
 21
21.4872
  0
LINE
  8
0
 10
50.4744
 20
21.4872
 11
50.7394
 21
21.6439
  0
LINE
  8
0
 10
50.7394
 20
21.6439
 11
51.0137
 21
21.7836
  0
LINE
  8
0
 10
51.0137
 20
21.7836
 11
51.2962
 21
21.9059
  0
LINE
  8
0
 10
51.2962
 20
21.9059
 11
51.5858
 21
22.0102
  0
LINE
  8
0
 10
51.5858
 20
22.0102
 11
51.8814
 21
22.096
  0
LINE
  8
0
 10
51.8814
 20
22.096
 11
52.1818
 21
22.1632
  0
LINE
  8
0
 10
52.1818
 20
22.1632
 11
52.4859
 21
22.2113
  0
LINE
  8
0
 10
52.4859
 20
22.2113
 11
52.7923
 21
22.2403
  0
LINE
  8
0
 10
52.7923
 20
22.2403
 11
53.1
 21
22.25
  0
LINE
  8
0
 10
53.1
 20
22.25
 11
53.4077
 21
22.2403
  0
LINE
  8
0
 10
53.4077
 20
22.2403
 11
53.7141
 21
22.2113
  0
LINE
  8
0
 10
53.7141
 20
22.2113
 11
54.0182
 21
22.1632
  0
LINE
  8
0
 10
54.0182
 20
22.1632
 11
54.3186
 21
22.096
  0
LINE
  8
0
 10
54.3186
 20
22.096
 11
54.6142
 21
22.0102
  0
LINE
  8
0
 10
54.6142
 20
22.0102
 11
54.9038
 21
21.9059
  0
LINE
  8
0
 10
54.9038
 20
21.9059
 11
55.1863
 21
21.7836
  0
LINE
  8
0
 10
55.1863
 20
21.7836
 11
55.4606
 21
21.6439
  0
LINE
  8
0
 10
55.4606
 20
21.6439
 11
55.7255
 21
21.4872
  0
LINE
  8
0
 10
55.7255
 20
21.4872
 11
55.9801
 21
21.3142
  0
LINE
  8
0
 10
55.9801
 20
21.3142
 11
56.2234
 21
21.1255
  0
LINE
  8
0
 10
56.2234
 20
21.1255
 11
56.4543
 21
20.9219
  0
LINE
  8
0
 10
56.4543
 20
20.9219
 11
56.6719
 21
20.7043
  0
LINE
  8
0
 10
56.6719
 20
20.7043
 11
56.8755
 21
20.4734
  0
LINE
  8
0
 10
56.8755
 20
20.4734
 11
57.0642
 21
20.2301
  0
LINE
  8
0
 10
57.0642
 20
20.2301
 11
57.2372
 21
19.9755
  0
LINE
  8
0
 10
57.2372
 20
19.9755
 11
57.3939
 21
19.7106
  0
LINE
  8
0
 10
57.3939
 20
19.7106
 11
57.5336
 21
19.4363
  0
LINE
  8
0
 10
57.5336
 20
19.4363
 11
57.6559
 21
19.1538
  0
LINE
  8
0
 10
57.6559
 20
19.1538
 11
57.7602
 21
18.8642
  0
LINE
  8
0
 10
57.7602
 20
18.8642
 11
57.846
 21
18.5686
  0
LINE
  8
0
 10
57.846
 20
18.5686
 11
57.9132
 21
18.2682
  0
LINE
  8
0
 10
57.9132
 20
18.2682
 11
57.9613
 21
17.9641
  0
LINE
  8
0
 10
57.9613
 20
17.9641
 11
57.9903
 21
17.6577
  0
LINE
  8
0
 10
57.9903
 20
17.6577
 11
58
 21
17.35
  0
LINE
  8
0
 10
58
 20
17.35
 11
57.9903
 21
17.0423
  0
LINE
  8
0
 10
57.9903
 20
17.0423
 11
57.9613
 21
16.7359
  0
LINE
  8
0
 10
57.9613
 20
16.7359
 11
57.9132
 21
16.4318
  0
LINE
  8
0
 10
57.9132
 20
16.4318
 11
57.846
 21
16.1314
  0
LINE
  8
0
 10
57.846
 20
16.1314
 11
57.7602
 21
15.8358
  0
LINE
  8
0
 10
57.7602
 20
15.8358
 11
57.6559
 21
15.5462
  0
LINE
  8
0
 10
57.6559
 20
15.5462
 11
57.5336
 21
15.2637
  0
LINE
  8
0
 10
57.5336
 20
15.2637
 11
57.3939
 21
14.9894
  0
LINE
  8
0
 10
57.3939
 20
14.9894
 11
57.2372
 21
14.7244
  0
LINE
  8
0
 10
57.2372
 20
14.7244
 11
57.0642
 21
14.4698
  0
LINE
  8
0
 10
57.0642
 20
14.4698
 11
56.8755
 21
14.2266
  0
LINE
  8
0
 10
56.8755
 20
14.2266
 11
56.6719
 21
13.9957
  0
LINE
  8
0
 10
56.6719
 20
13.9957
 11
56.4543
 21
13.778
  0
LINE
  8
0
 10
56.4543
 20
13.778
 11
56.2234
 21
13.5745
  0
LINE
  8
0
 10
56.2234
 20
13.5745
 11
55.9801
 21
13.3858
  0
LINE
  8
0
 10
55.9801
 20
13.3858
 11
55.7255
 21
13.2128
  0
LINE
  8
0
 10
55.7255
 20
13.2128
 11
55.4606
 21
13.0561
  0
LINE
  8
0
 10
55.4606
 20
13.0561
 11
55.1863
 21
12.9164
  0
LINE
  8
0
 10
55.1863
 20
12.9164
 11
54.9038
 21
12.7941
  0
LINE
  8
0
 10
54.9038
 20
12.7941
 11
54.6142
 21
12.6898
  0
LINE
  8
0
 10
54.6142
 20
12.6898
 11
54.3186
 21
12.6039
  0
LINE
  8
0
 10
54.3186
 20
12.6039
 11
54.0182
 21
12.5368
  0
LINE
  8
0
 10
54.0182
 20
12.5368
 11
53.7141
 21
12.4886
  0
LINE
  8
0
 10
53.7141
 20
12.4886
 11
53.4077
 21
12.4597
  0
LINE
  8
0
 10
53.4077
 20
12.4597
 11
53.1
 21
12.45
  0
LINE
  8
0
 10
53.1
 20
12.45
 11
52.7923
 21
12.4597
  0
LINE
  8
0
 10
71.8423
 20
12.4597
 11
71.5359
 21
12.4886
  0
LINE
  8
0
 10
71.5359
 20
12.4886
 11
71.2318
 21
12.5368
  0
LINE
  8
0
 10
71.2318
 20
12.5368
 11
70.9314
 21
12.6039
  0
LINE
  8
0
 10
70.9314
 20
12.6039
 11
70.6358
 21
12.6898
  0
LINE
  8
0
 10
70.6358
 20
12.6898
 11
70.3462
 21
12.7941
  0
LINE
  8
0
 10
70.3462
 20
12.7941
 11
70.0637
 21
12.9164
  0
LINE
  8
0
 10
70.0637
 20
12.9164
 11
69.7894
 21
13.0561
  0
LINE
  8
0
 10
69.7894
 20
13.0561
 11
69.5244
 21
13.2128
  0
LINE
  8
0
 10
69.5244
 20
13.2128
 11
69.2699
 21
13.3858
  0
LINE
  8
0
 10
69.2699
 20
13.3858
 11
69.0266
 21
13.5745
  0
LINE
  8
0
 10
69.0266
 20
13.5745
 11
68.7957
 21
13.778
  0
LINE
  8
0
 10
68.7957
 20
13.778
 11
68.578
 21
13.9957
  0
LINE
  8
0
 10
68.578
 20
13.9957
 11
68.46
 21
14.1296
  0
LINE
  8
0
 10
68.46
 20
14.1296
 11
68.46
 21
20.5704
  0
LINE
  8
0
 10
68.46
 20
20.5704
 11
68.578
 21
20.7043
  0
LINE
  8
0
 10
68.578
 20
20.7043
 11
68.7957
 21
20.9219
  0
LINE
  8
0
 10
68.7957
 20
20.9219
 11
69.0266
 21
21.1255
  0
LINE
  8
0
 10
69.0266
 20
21.1255
 11
69.2699
 21
21.3142
  0
LINE
  8
0
 10
69.2699
 20
21.3142
 11
69.5244
 21
21.4872
  0
LINE
  8
0
 10
69.5244
 20
21.4872
 11
69.7894
 21
21.6439
  0
LINE
  8
0
 10
69.7894
 20
21.6439
 11
70.0637
 21
21.7836
  0
LINE
  8
0
 10
70.0637
 20
21.7836
 11
70.3462
 21
21.9059
  0
LINE
  8
0
 10
70.3462
 20
21.9059
 11
70.6358
 21
22.0102
  0
LINE
  8
0
 10
70.6358
 20
22.0102
 11
70.9314
 21
22.096
  0
LINE
  8
0
 10
70.9314
 20
22.096
 11
71.2318
 21
22.1632
  0
LINE
  8
0
 10
71.2318
 20
22.1632
 11
71.5359
 21
22.2113
  0
LINE
  8
0
 10
71.5359
 20
22.2113
 11
71.8423
 21
22.2403
  0
LINE
  8
0
 10
71.8423
 20
22.2403
 11
72.15
 21
22.25
  0
LINE
  8
0
 10
72.15
 20
22.25
 11
72.4577
 21
22.2403
  0
LINE
  8
0
 10
72.4577
 20
22.2403
 11
72.7641
 21
22.2113
  0
LINE
  8
0
 10
72.7641
 20
22.2113
 11
73.0682
 21
22.1632
  0
LINE
  8
0
 10
73.0682
 20
22.1632
 11
73.3686
 21
22.096
  0
LINE
  8
0
 10
73.3686
 20
22.096
 11
73.6642
 21
22.0102
  0
LINE
  8
0
 10
73.6642
 20
22.0102
 11
73.9538
 21
21.9059
  0
LINE
  8
0
 10
73.9538
 20
21.9059
 11
74.2363
 21
21.7836
  0
LINE
  8
0
 10
74.2363
 20
21.7836
 11
74.5106
 21
21.6439
  0
LINE
  8
0
 10
74.5106
 20
21.6439
 11
74.7755
 21
21.4872
  0
LINE
  8
0
 10
74.7755
 20
21.4872
 11
75.0301
 21
21.3142
  0
LINE
  8
0
 10
75.0301
 20
21.3142
 11
75.2734
 21
21.1255
  0
LINE
  8
0
 10
75.2734
 20
21.1255
 11
75.5043
 21
20.9219
  0
LINE
  8
0
 10
75.5043
 20
20.9219
 11
75.7219
 21
20.7043
  0
LINE
  8
0
 10
75.7219
 20
20.7043
 11
75.9255
 21
20.4734
  0
LINE
  8
0
 10
75.9255
 20
20.4734
 11
76.1142
 21
20.2301
  0
LINE
  8
0
 10
76.1142
 20
20.2301
 11
76.2872
 21
19.9755
  0
LINE
  8
0
 10
76.2872
 20
19.9755
 11
76.4439
 21
19.7106
  0
LINE
  8
0
 10
76.4439
 20
19.7106
 11
76.5836
 21
19.4363
  0
LINE
  8
0
 10
76.5836
 20
19.4363
 11
76.7059
 21
19.1538
  0
LINE
  8
0
 10
76.7059
 20
19.1538
 11
76.8102
 21
18.8642
  0
LINE
  8
0
 10
76.8102
 20
18.8642
 11
76.896
 21
18.5686
  0
LINE
  8
0
 10
76.896
 20
18.5686
 11
76.9632
 21
18.2682
  0
LINE
  8
0
 10
76.9632
 20
18.2682
 11
77.0114
 21
17.9641
  0
LINE
  8
0
 10
77.0114
 20
17.9641
 11
77.0403
 21
17.6577
  0
LINE
  8
0
 10
77.0403
 20
17.6577
 11
77.05
 21
17.35
  0
LINE
  8
0
 10
77.05
 20
17.35
 11
77.0403
 21
17.0423
  0
LINE
  8
0
 10
77.0403
 20
17.0423
 11
77.0114
 21
16.7359
  0
LINE
  8
0
 10
77.0114
 20
16.7359
 11
76.9632
 21
16.4318
  0
LINE
  8
0
 10
76.9632
 20
16.4318
 11
76.896
 21
16.1314
  0
LINE
  8
0
 10
76.896
 20
16.1314
 11
76.8102
 21
15.8358
  0
LINE
  8
0
 10
76.8102
 20
15.8358
 11
76.7059
 21
15.5462
  0
LINE
  8
0
 10
76.7059
 20
15.5462
 11
76.5836
 21
15.2637
  0
LINE
  8
0
 10
76.5836
 20
15.2637
 11
76.4439
 21
14.9894
  0
LINE
  8
0
 10
76.4439
 20
14.9894
 11
76.2872
 21
14.7244
  0
LINE
  8
0
 10
76.2872
 20
14.7244
 11
76.1142
 21
14.4698
  0
LINE
  8
0
 10
76.1142
 20
14.4698
 11
75.9255
 21
14.2266
  0
LINE
  8
0
 10
75.9255
 20
14.2266
 11
75.7219
 21
13.9957
  0
LINE
  8
0
 10
75.7219
 20
13.9957
 11
75.5043
 21
13.778
  0
LINE
  8
0
 10
75.5043
 20
13.778
 11
75.2734
 21
13.5745
  0
LINE
  8
0
 10
75.2734
 20
13.5745
 11
75.0301
 21
13.3858
  0
LINE
  8
0
 10
75.0301
 20
13.3858
 11
74.7755
 21
13.2128
  0
LINE
  8
0
 10
74.7755
 20
13.2128
 11
74.5106
 21
13.0561
  0
LINE
  8
0
 10
74.5106
 20
13.0561
 11
74.2363
 21
12.9164
  0
LINE
  8
0
 10
74.2363
 20
12.9164
 11
73.9538
 21
12.7941
  0
LINE
  8
0
 10
73.9538
 20
12.7941
 11
73.6642
 21
12.6898
  0
LINE
  8
0
 10
73.6642
 20
12.6898
 11
73.3686
 21
12.6039
  0
LINE
  8
0
 10
73.3686
 20
12.6039
 11
73.0682
 21
12.5368
  0
LINE
  8
0
 10
73.0682
 20
12.5368
 11
72.7641
 21
12.4886
  0
LINE
  8
0
 10
72.7641
 20
12.4886
 11
72.4577
 21
12.4597
  0
LINE
  8
0
 10
72.4577
 20
12.4597
 11
72.15
 21
12.45
  0
LINE
  8
0
 10
72.15
 20
12.45
 11
71.8423
 21
12.4597
  0
LINE
  8
0
 10
90.8923
 20
12.4597
 11
90.5859
 21
12.4886
  0
LINE
  8
0
 10
90.5859
 20
12.4886
 11
90.2818
 21
12.5368
  0
LINE
  8
0
 10
90.2818
 20
12.5368
 11
89.9814
 21
12.6039
  0
LINE
  8
0
 10
89.9814
 20
12.6039
 11
89.6858
 21
12.6898
  0
LINE
  8
0
 10
89.6858
 20
12.6898
 11
89.3962
 21
12.7941
  0
LINE
  8
0
 10
89.3962
 20
12.7941
 11
89.1137
 21
12.9164
  0
LINE
  8
0
 10
89.1137
 20
12.9164
 11
88.8394
 21
13.0561
  0
LINE
  8
0
 10
88.8394
 20
13.0561
 11
88.5744
 21
13.2128
  0
LINE
  8
0
 10
88.5744
 20
13.2128
 11
88.3199
 21
13.3858
  0
LINE
  8
0
 10
88.3199
 20
13.3858
 11
88.0766
 21
13.5745
  0
LINE
  8
0
 10
88.0766
 20
13.5745
 11
87.8457
 21
13.778
  0
LINE
  8
0
 10
87.8457
 20
13.778
 11
87.6281
 21
13.9957
  0
LINE
  8
0
 10
87.6281
 20
13.9957
 11
87.51
 21
14.1296
  0
LINE
  8
0
 10
87.51
 20
14.1296
 11
87.51
 21
20.5704
  0
LINE
  8
0
 10
87.51
 20
20.5704
 11
87.6281
 21
20.7043
  0
LINE
  8
0
 10
87.6281
 20
20.7043
 11
87.8457
 21
20.9219
  0
LINE
  8
0
 10
87.8457
 20
20.9219
 11
88.0766
 21
21.1255
  0
LINE
  8
0
 10
88.0766
 20
21.1255
 11
88.3199
 21
21.3142
  0
LINE
  8
0
 10
88.3199
 20
21.3142
 11
88.5744
 21
21.4872
  0
LINE
  8
0
 10
88.5744
 20
21.4872
 11
88.8394
 21
21.6439
  0
LINE
  8
0
 10
88.8394
 20
21.6439
 11
89.1137
 21
21.7836
  0
LINE
  8
0
 10
89.1137
 20
21.7836
 11
89.3962
 21
21.9059
  0
LINE
  8
0
 10
89.3962
 20
21.9059
 11
89.6858
 21
22.0102
  0
LINE
  8
0
 10
89.6858
 20
22.0102
 11
89.9814
 21
22.096
  0
LINE
  8
0
 10
89.9814
 20
22.096
 11
90.2818
 21
22.1632
  0
LINE
  8
0
 10
90.2818
 20
22.1632
 11
90.5859
 21
22.2113
  0
LINE
  8
0
 10
90.5859
 20
22.2113
 11
90.8923
 21
22.2403
  0
LINE
  8
0
 10
90.8923
 20
22.2403
 11
91.2
 21
22.25
  0
LINE
  8
0
 10
91.2
 20
22.25
 11
91.5077
 21
22.2403
  0
LINE
  8
0
 10
91.5077
 20
22.2403
 11
91.8141
 21
22.2113
  0
LINE
  8
0
 10
91.8141
 20
22.2113
 11
92.1182
 21
22.1632
  0
LINE
  8
0
 10
92.1182
 20
22.1632
 11
92.4186
 21
22.096
  0
LINE
  8
0
 10
92.4186
 20
22.096
 11
92.7142
 21
22.0102
  0
LINE
  8
0
 10
92.7142
 20
22.0102
 11
93.0038
 21
21.9059
  0
LINE
  8
0
 10
93.0038
 20
21.9059
 11
93.2863
 21
21.7836
  0
LINE
  8
0
 10
93.2863
 20
21.7836
 11
93.5606
 21
21.6439
  0
LINE
  8
0
 10
93.5606
 20
21.6439
 11
93.8255
 21
21.4872
  0
LINE
  8
0
 10
93.8255
 20
21.4872
 11
94.0801
 21
21.3142
  0
LINE
  8
0
 10
94.0801
 20
21.3142
 11
94.3234
 21
21.1255
  0
LINE
  8
0
 10
94.3234
 20
21.1255
 11
94.5543
 21
20.9219
  0
LINE
  8
0
 10
94.5543
 20
20.9219
 11
94.7719
 21
20.7043
  0
LINE
  8
0
 10
94.7719
 20
20.7043
 11
94.9755
 21
20.4734
  0
LINE
  8
0
 10
94.9755
 20
20.4734
 11
95.1642
 21
20.2301
  0
LINE
  8
0
 10
95.1642
 20
20.2301
 11
95.3372
 21
19.9755
  0
LINE
  8
0
 10
95.3372
 20
19.9755
 11
95.4939
 21
19.7106
  0
LINE
  8
0
 10
95.4939
 20
19.7106
 11
95.6336
 21
19.4363
  0
LINE
  8
0
 10
95.6336
 20
19.4363
 11
95.7559
 21
19.1538
  0
LINE
  8
0
 10
95.7559
 20
19.1538
 11
95.8602
 21
18.8642
  0
LINE
  8
0
 10
95.8602
 20
18.8642
 11
95.946
 21
18.5686
  0
LINE
  8
0
 10
95.946
 20
18.5686
 11
96.0132
 21
18.2682
  0
LINE
  8
0
 10
96.0132
 20
18.2682
 11
96.0614
 21
17.9641
  0
LINE
  8
0
 10
96.0614
 20
17.9641
 11
96.0903
 21
17.6577
  0
LINE
  8
0
 10
96.0903
 20
17.6577
 11
96.1
 21
17.35
  0
LINE
  8
0
 10
96.1
 20
17.35
 11
96.0903
 21
17.0423
  0
LINE
  8
0
 10
96.0903
 20
17.0423
 11
96.0614
 21
16.7359
  0
LINE
  8
0
 10
96.0614
 20
16.7359
 11
96.0132
 21
16.4318
  0
LINE
  8
0
 10
96.0132
 20
16.4318
 11
95.946
 21
16.1314
  0
LINE
  8
0
 10
95.946
 20
16.1314
 11
95.8602
 21
15.8358
  0
LINE
  8
0
 10
95.8602
 20
15.8358
 11
95.7559
 21
15.5462
  0
LINE
  8
0
 10
95.7559
 20
15.5462
 11
95.6336
 21
15.2637
  0
LINE
  8
0
 10
95.6336
 20
15.2637
 11
95.4939
 21
14.9894
  0
LINE
  8
0
 10
95.4939
 20
14.9894
 11
95.3372
 21
14.7244
  0
LINE
  8
0
 10
95.3372
 20
14.7244
 11
95.1642
 21
14.4698
  0
LINE
  8
0
 10
95.1642
 20
14.4698
 11
94.9755
 21
14.2266
  0
LINE
  8
0
 10
94.9755
 20
14.2266
 11
94.7719
 21
13.9957
  0
LINE
  8
0
 10
94.7719
 20
13.9957
 11
94.5543
 21
13.778
  0
LINE
  8
0
 10
94.5543
 20
13.778
 11
94.3234
 21
13.5745
  0
LINE
  8
0
 10
94.3234
 20
13.5745
 11
94.0801
 21
13.3858
  0
LINE
  8
0
 10
94.0801
 20
13.3858
 11
93.8255
 21
13.2128
  0
LINE
  8
0
 10
93.8255
 20
13.2128
 11
93.5606
 21
13.0561
  0
LINE
  8
0
 10
93.5606
 20
13.0561
 11
93.2863
 21
12.9164
  0
LINE
  8
0
 10
93.2863
 20
12.9164
 11
93.0038
 21
12.7941
  0
LINE
  8
0
 10
93.0038
 20
12.7941
 11
92.7142
 21
12.6898
  0
LINE
  8
0
 10
92.7142
 20
12.6898
 11
92.4186
 21
12.6039
  0
LINE
  8
0
 10
92.4186
 20
12.6039
 11
92.1182
 21
12.5368
  0
LINE
  8
0
 10
92.1182
 20
12.5368
 11
91.8141
 21
12.4886
  0
LINE
  8
0
 10
91.8141
 20
12.4886
 11
91.5077
 21
12.4597
  0
LINE
  8
0
 10
91.5077
 20
12.4597
 11
91.2
 21
12.45
  0
LINE
  8
0
 10
91.2
 20
12.45
 11
90.8923
 21
12.4597
  0
LINE
  8
0
 10
109.942
 20
12.4597
 11
109.636
 21
12.4886
  0
LINE
  8
0
 10
109.636
 20
12.4886
 11
109.332
 21
12.5368
  0
LINE
  8
0
 10
109.332
 20
12.5368
 11
109.031
 21
12.6039
  0
LINE
  8
0
 10
109.031
 20
12.6039
 11
108.736
 21
12.6898
  0
LINE
  8
0
 10
108.736
 20
12.6898
 11
108.446
 21
12.7941
  0
LINE
  8
0
 10
108.446
 20
12.7941
 11
108.164
 21
12.9164
  0
LINE
  8
0
 10
108.164
 20
12.9164
 11
107.889
 21
13.0561
  0
LINE
  8
0
 10
107.889
 20
13.0561
 11
107.624
 21
13.2128
  0
LINE
  8
0
 10
107.624
 20
13.2128
 11
107.37
 21
13.3858
  0
LINE
  8
0
 10
107.37
 20
13.3858
 11
107.127
 21
13.5745
  0
LINE
  8
0
 10
107.127
 20
13.5745
 11
106.896
 21
13.778
  0
LINE
  8
0
 10
106.896
 20
13.778
 11
106.678
 21
13.9957
  0
LINE
  8
0
 10
106.678
 20
13.9957
 11
106.56
 21
14.1296
  0
LINE
  8
0
 10
106.56
 20
14.1296
 11
106.56
 21
20.5704
  0
LINE
  8
0
 10
106.56
 20
20.5704
 11
106.678
 21
20.7043
  0
LINE
  8
0
 10
106.678
 20
20.7043
 11
106.896
 21
20.9219
  0
LINE
  8
0
 10
106.896
 20
20.9219
 11
107.127
 21
21.1255
  0
LINE
  8
0
 10
107.127
 20
21.1255
 11
107.37
 21
21.3142
  0
LINE
  8
0
 10
107.37
 20
21.3142
 11
107.624
 21
21.4872
  0
LINE
  8
0
 10
107.624
 20
21.4872
 11
107.889
 21
21.6439
  0
LINE
  8
0
 10
107.889
 20
21.6439
 11
108.164
 21
21.7836
  0
LINE
  8
0
 10
108.164
 20
21.7836
 11
108.446
 21
21.9059
  0
LINE
  8
0
 10
108.446
 20
21.9059
 11
108.736
 21
22.0102
  0
LINE
  8
0
 10
108.736
 20
22.0102
 11
109.031
 21
22.096
  0
LINE
  8
0
 10
109.031
 20
22.096
 11
109.332
 21
22.1632
  0
LINE
  8
0
 10
109.332
 20
22.1632
 11
109.636
 21
22.2113
  0
LINE
  8
0
 10
109.636
 20
22.2113
 11
109.942
 21
22.2403
  0
LINE
  8
0
 10
109.942
 20
22.2403
 11
110.25
 21
22.25
  0
LINE
  8
0
 10
110.25
 20
22.25
 11
110.558
 21
22.2403
  0
LINE
  8
0
 10
110.558
 20
22.2403
 11
110.864
 21
22.2113
  0
LINE
  8
0
 10
110.864
 20
22.2113
 11
111.168
 21
22.1632
  0
LINE
  8
0
 10
111.168
 20
22.1632
 11
111.469
 21
22.096
  0
LINE
  8
0
 10
111.469
 20
22.096
 11
111.764
 21
22.0102
  0
LINE
  8
0
 10
111.764
 20
22.0102
 11
112.054
 21
21.9059
  0
LINE
  8
0
 10
112.054
 20
21.9059
 11
112.336
 21
21.7836
  0
LINE
  8
0
 10
112.336
 20
21.7836
 11
112.611
 21
21.6439
  0
LINE
  8
0
 10
112.611
 20
21.6439
 11
112.876
 21
21.4872
  0
LINE
  8
0
 10
112.876
 20
21.4872
 11
113.13
 21
21.3142
  0
LINE
  8
0
 10
113.13
 20
21.3142
 11
113.373
 21
21.1255
  0
LINE
  8
0
 10
113.373
 20
21.1255
 11
113.604
 21
20.9219
  0
LINE
  8
0
 10
113.604
 20
20.9219
 11
113.822
 21
20.7043
  0
LINE
  8
0
 10
113.822
 20
20.7043
 11
114.026
 21
20.4734
  0
LINE
  8
0
 10
114.026
 20
20.4734
 11
114.214
 21
20.2301
  0
LINE
  8
0
 10
114.214
 20
20.2301
 11
114.387
 21
19.9755
  0
LINE
  8
0
 10
114.387
 20
19.9755
 11
114.544
 21
19.7106
  0
LINE
  8
0
 10
114.544
 20
19.7106
 11
114.684
 21
19.4363
  0
LINE
  8
0
 10
114.684
 20
19.4363
 11
114.806
 21
19.1538
  0
LINE
  8
0
 10
114.806
 20
19.1538
 11
114.91
 21
18.8642
  0
LINE
  8
0
 10
114.91
 20
18.8642
 11
114.996
 21
18.5686
  0
LINE
  8
0
 10
114.996
 20
18.5686
 11
115.063
 21
18.2682
  0
LINE
  8
0
 10
115.063
 20
18.2682
 11
115.111
 21
17.9641
  0
LINE
  8
0
 10
115.111
 20
17.9641
 11
115.14
 21
17.6577
  0
LINE
  8
0
 10
115.14
 20
17.6577
 11
115.15
 21
17.35
  0
LINE
  8
0
 10
115.15
 20
17.35
 11
115.14
 21
17.0423
  0
LINE
  8
0
 10
115.14
 20
17.0423
 11
115.111
 21
16.7359
  0
LINE
  8
0
 10
115.111
 20
16.7359
 11
115.063
 21
16.4318
  0
LINE
  8
0
 10
115.063
 20
16.4318
 11
114.996
 21
16.1314
  0
LINE
  8
0
 10
114.996
 20
16.1314
 11
114.91
 21
15.8358
  0
LINE
  8
0
 10
114.91
 20
15.8358
 11
114.806
 21
15.5462
  0
LINE
  8
0
 10
114.806
 20
15.5462
 11
114.684
 21
15.2637
  0
LINE
  8
0
 10
114.684
 20
15.2637
 11
114.544
 21
14.9894
  0
LINE
  8
0
 10
114.544
 20
14.9894
 11
114.387
 21
14.7244
  0
LINE
  8
0
 10
114.387
 20
14.7244
 11
114.214
 21
14.4698
  0
LINE
  8
0
 10
114.214
 20
14.4698
 11
114.026
 21
14.2266
  0
LINE
  8
0
 10
114.026
 20
14.2266
 11
113.822
 21
13.9957
  0
LINE
  8
0
 10
113.822
 20
13.9957
 11
113.604
 21
13.778
  0
LINE
  8
0
 10
113.604
 20
13.778
 11
113.373
 21
13.5745
  0
LINE
  8
0
 10
113.373
 20
13.5745
 11
113.13
 21
13.3858
  0
LINE
  8
0
 10
113.13
 20
13.3858
 11
112.876
 21
13.2128
  0
LINE
  8
0
 10
112.876
 20
13.2128
 11
112.611
 21
13.0561
  0
LINE
  8
0
 10
112.611
 20
13.0561
 11
112.336
 21
12.9164
  0
LINE
  8
0
 10
112.336
 20
12.9164
 11
112.054
 21
12.7941
  0
LINE
  8
0
 10
112.054
 20
12.7941
 11
111.764
 21
12.6898
  0
LINE
  8
0
 10
111.764
 20
12.6898
 11
111.469
 21
12.6039
  0
LINE
  8
0
 10
111.469
 20
12.6039
 11
111.168
 21
12.5368
  0
LINE
  8
0
 10
111.168
 20
12.5368
 11
110.864
 21
12.4886
  0
LINE
  8
0
 10
110.864
 20
12.4886
 11
110.558
 21
12.4597
  0
LINE
  8
0
 10
110.558
 20
12.4597
 11
110.25
 21
12.45
  0
LINE
  8
0
 10
110.25
 20
12.45
 11
109.942
 21
12.4597
  0
LINE
  8
0
 10
181.023
 20
15.7282
 11
180.921
 21
15.7378
  0
LINE
  8
0
 10
180.921
 20
15.7378
 11
180.82
 21
15.7538
  0
LINE
  8
0
 10
180.82
 20
15.7538
 11
180.721
 21
15.776
  0
LINE
  8
0
 10
180.721
 20
15.776
 11
180.623
 21
15.8045
  0
LINE
  8
0
 10
180.623
 20
15.8045
 11
180.527
 21
15.8391
  0
LINE
  8
0
 10
180.527
 20
15.8391
 11
180.433
 21
15.8797
  0
LINE
  8
0
 10
180.433
 20
15.8797
 11
180.342
 21
15.926
  0
LINE
  8
0
 10
180.342
 20
15.926
 11
180.254
 21
15.978
  0
LINE
  8
0
 10
180.254
 20
15.978
 11
180.17
 21
16.0353
  0
LINE
  8
0
 10
180.17
 20
16.0353
 11
180.089
 21
16.0979
  0
LINE
  8
0
 10
180.089
 20
16.0979
 11
180.013
 21
16.1654
  0
LINE
  8
0
 10
180.013
 20
16.1654
 11
179.94
 21
16.2376
  0
LINE
  8
0
 10
179.94
 20
16.2376
 11
179.873
 21
16.3142
  0
LINE
  8
0
 10
179.873
 20
16.3142
 11
179.81
 21
16.3949
  0
LINE
  8
0
 10
179.81
 20
16.3949
 11
179.753
 21
16.4793
  0
LINE
  8
0
 10
179.753
 20
16.4793
 11
179.701
 21
16.5672
  0
LINE
  8
0
 10
179.701
 20
16.5672
 11
179.655
 21
16.6581
  0
LINE
  8
0
 10
179.655
 20
16.6581
 11
179.614
 21
16.7518
  0
LINE
  8
0
 10
179.614
 20
16.7518
 11
179.58
 21
16.8478
  0
LINE
  8
0
 10
179.58
 20
16.8478
 11
179.551
 21
16.9459
  0
LINE
  8
0
 10
179.551
 20
16.9459
 11
179.529
 21
17.0455
  0
LINE
  8
0
 10
179.529
 20
17.0455
 11
179.513
 21
17.1463
  0
LINE
  8
0
 10
179.513
 20
17.1463
 11
179.503
 21
17.248
  0
LINE
  8
0
 10
179.503
 20
17.248
 11
179.5
 21
17.35
  0
LINE
  8
0
 10
179.5
 20
17.35
 11
179.503
 21
17.452
  0
LINE
  8
0
 10
179.503
 20
17.452
 11
179.513
 21
17.5536
  0
LINE
  8
0
 10
179.513
 20
17.5536
 11
179.529
 21
17.6545
  0
LINE
  8
0
 10
179.529
 20
17.6545
 11
179.551
 21
17.7541
  0
LINE
  8
0
 10
179.551
 20
17.7541
 11
179.58
 21
17.8521
  0
LINE
  8
0
 10
179.58
 20
17.8521
 11
179.614
 21
17.9482
  0
LINE
  8
0
 10
179.614
 20
17.9482
 11
179.655
 21
18.0419
  0
LINE
  8
0
 10
179.655
 20
18.0419
 11
179.701
 21
18.1328
  0
LINE
  8
0
 10
179.701
 20
18.1328
 11
179.753
 21
18.2207
  0
LINE
  8
0
 10
179.753
 20
18.2207
 11
179.81
 21
18.3051
  0
LINE
  8
0
 10
179.81
 20
18.3051
 11
179.873
 21
18.3858
  0
LINE
  8
0
 10
179.873
 20
18.3858
 11
179.94
 21
18.4624
  0
LINE
  8
0
 10
179.94
 20
18.4624
 11
180.013
 21
18.5346
  0
LINE
  8
0
 10
180.013
 20
18.5346
 11
180.089
 21
18.6021
  0
LINE
  8
0
 10
180.089
 20
18.6021
 11
180.17
 21
18.6646
  0
LINE
  8
0
 10
180.17
 20
18.6646
 11
180.254
 21
18.722
  0
LINE
  8
0
 10
180.254
 20
18.722
 11
180.342
 21
18.774
  0
LINE
  8
0
 10
180.342
 20
18.774
 11
180.433
 21
18.8203
  0
LINE
  8
0
 10
180.433
 20
18.8203
 11
180.527
 21
18.8609
  0
LINE
  8
0
 10
180.527
 20
18.8609
 11
180.623
 21
18.8954
  0
LINE
  8
0
 10
180.623
 20
18.8954
 11
180.721
 21
18.9239
  0
LINE
  8
0
 10
180.721
 20
18.9239
 11
180.82
 21
18.9462
  0
LINE
  8
0
 10
180.82
 20
18.9462
 11
180.921
 21
18.9622
  0
LINE
  8
0
 10
180.921
 20
18.9622
 11
181.023
 21
18.9718
  0
LINE
  8
0
 10
181.023
 20
18.9718
 11
181.125
 21
18.975
  0
LINE
  8
0
 10
181.125
 20
18.975
 11
181.227
 21
18.9718
  0
LINE
  8
0
 10
181.227
 20
18.9718
 11
181.329
 21
18.9622
  0
LINE
  8
0
 10
181.329
 20
18.9622
 11
181.429
 21
18.9462
  0
LINE
  8
0
 10
181.429
 20
18.9462
 11
181.529
 21
18.9239
  0
LINE
  8
0
 10
181.529
 20
18.9239
 11
181.627
 21
18.8954
  0
LINE
  8
0
 10
181.627
 20
18.8954
 11
181.723
 21
18.8609
  0
LINE
  8
0
 10
181.723
 20
18.8609
 11
181.817
 21
18.8203
  0
LINE
  8
0
 10
181.817
 20
18.8203
 11
181.908
 21
18.774
  0
LINE
  8
0
 10
181.908
 20
18.774
 11
181.996
 21
18.722
  0
LINE
  8
0
 10
181.996
 20
18.722
 11
182.08
 21
18.6646
  0
LINE
  8
0
 10
182.08
 20
18.6646
 11
182.161
 21
18.6021
  0
LINE
  8
0
 10
182.161
 20
18.6021
 11
182.237
 21
18.5346
  0
LINE
  8
0
 10
182.237
 20
18.5346
 11
182.31
 21
18.4624
  0
LINE
  8
0
 10
182.31
 20
18.4624
 11
182.377
 21
18.3858
  0
LINE
  8
0
 10
182.377
 20
18.3858
 11
182.44
 21
18.3051
  0
LINE
  8
0
 10
182.44
 20
18.3051
 11
182.497
 21
18.2207
  0
LINE
  8
0
 10
182.497
 20
18.2207
 11
182.549
 21
18.1328
  0
LINE
  8
0
 10
182.549
 20
18.1328
 11
182.595
 21
18.0419
  0
LINE
  8
0
 10
182.595
 20
18.0419
 11
182.636
 21
17.9482
  0
LINE
  8
0
 10
182.636
 20
17.9482
 11
182.67
 21
17.8521
  0
LINE
  8
0
 10
182.67
 20
17.8521
 11
182.699
 21
17.7541
  0
LINE
  8
0
 10
182.699
 20
17.7541
 11
182.721
 21
17.6545
  0
LINE
  8
0
 10
182.721
 20
17.6545
 11
182.737
 21
17.5536
  0
LINE
  8
0
 10
182.737
 20
17.5536
 11
182.747
 21
17.452
  0
LINE
  8
0
 10
182.747
 20
17.452
 11
182.75
 21
17.35
  0
LINE
  8
0
 10
182.75
 20
17.35
 11
182.747
 21
17.248
  0
LINE
  8
0
 10
182.747
 20
17.248
 11
182.737
 21
17.1463
  0
LINE
  8
0
 10
182.737
 20
17.1463
 11
182.721
 21
17.0455
  0
LINE
  8
0
 10
182.721
 20
17.0455
 11
182.699
 21
16.9459
  0
LINE
  8
0
 10
182.699
 20
16.9459
 11
182.67
 21
16.8478
  0
LINE
  8
0
 10
182.67
 20
16.8478
 11
182.636
 21
16.7518
  0
LINE
  8
0
 10
182.636
 20
16.7518
 11
182.595
 21
16.6581
  0
LINE
  8
0
 10
182.595
 20
16.6581
 11
182.549
 21
16.5672
  0
LINE
  8
0
 10
182.549
 20
16.5672
 11
182.497
 21
16.4793
  0
LINE
  8
0
 10
182.497
 20
16.4793
 11
182.44
 21
16.3949
  0
LINE
  8
0
 10
182.44
 20
16.3949
 11
182.377
 21
16.3142
  0
LINE
  8
0
 10
182.377
 20
16.3142
 11
182.31
 21
16.2376
  0
LINE
  8
0
 10
182.31
 20
16.2376
 11
182.237
 21
16.1654
  0
LINE
  8
0
 10
182.237
 20
16.1654
 11
182.161
 21
16.0979
  0
LINE
  8
0
 10
182.161
 20
16.0979
 11
182.08
 21
16.0353
  0
LINE
  8
0
 10
182.08
 20
16.0353
 11
181.996
 21
15.978
  0
LINE
  8
0
 10
181.996
 20
15.978
 11
181.908
 21
15.926
  0
LINE
  8
0
 10
181.908
 20
15.926
 11
181.817
 21
15.8797
  0
LINE
  8
0
 10
181.817
 20
15.8797
 11
181.723
 21
15.8391
  0
LINE
  8
0
 10
181.723
 20
15.8391
 11
181.627
 21
15.8045
  0
LINE
  8
0
 10
181.627
 20
15.8045
 11
181.529
 21
15.776
  0
LINE
  8
0
 10
181.529
 20
15.776
 11
181.429
 21
15.7538
  0
LINE
  8
0
 10
181.429
 20
15.7538
 11
181.329
 21
15.7378
  0
LINE
  8
0
 10
181.329
 20
15.7378
 11
181.227
 21
15.7282
  0
LINE
  8
0
 10
181.227
 20
15.7282
 11
181.125
 21
15.725
  0
LINE
  8
0
 10
181.125
 20
15.725
 11
181.023
 21
15.7282
  0
LINE
  8
0
 10
134.523
 20
15.7282
 11
134.421
 21
15.7378
  0
LINE
  8
0
 10
134.421
 20
15.7378
 11
134.321
 21
15.7538
  0
LINE
  8
0
 10
134.321
 20
15.7538
 11
134.221
 21
15.776
  0
LINE
  8
0
 10
134.221
 20
15.776
 11
134.123
 21
15.8045
  0
LINE
  8
0
 10
134.123
 20
15.8045
 11
134.027
 21
15.8391
  0
LINE
  8
0
 10
134.027
 20
15.8391
 11
133.933
 21
15.8797
  0
LINE
  8
0
 10
133.933
 20
15.8797
 11
133.842
 21
15.926
  0
LINE
  8
0
 10
133.842
 20
15.926
 11
133.754
 21
15.978
  0
LINE
  8
0
 10
133.754
 20
15.978
 11
133.67
 21
16.0353
  0
LINE
  8
0
 10
133.67
 20
16.0353
 11
133.589
 21
16.0979
  0
LINE
  8
0
 10
133.589
 20
16.0979
 11
133.513
 21
16.1654
  0
LINE
  8
0
 10
133.513
 20
16.1654
 11
133.44
 21
16.2376
  0
LINE
  8
0
 10
133.44
 20
16.2376
 11
133.373
 21
16.3142
  0
LINE
  8
0
 10
133.373
 20
16.3142
 11
133.31
 21
16.3949
  0
LINE
  8
0
 10
133.31
 20
16.3949
 11
133.253
 21
16.4793
  0
LINE
  8
0
 10
133.253
 20
16.4793
 11
133.201
 21
16.5672
  0
LINE
  8
0
 10
133.201
 20
16.5672
 11
133.155
 21
16.6581
  0
LINE
  8
0
 10
133.155
 20
16.6581
 11
133.114
 21
16.7518
  0
LINE
  8
0
 10
133.114
 20
16.7518
 11
133.08
 21
16.8478
  0
LINE
  8
0
 10
133.08
 20
16.8478
 11
133.051
 21
16.9459
  0
LINE
  8
0
 10
133.051
 20
16.9459
 11
133.029
 21
17.0455
  0
LINE
  8
0
 10
133.029
 20
17.0455
 11
133.013
 21
17.1463
  0
LINE
  8
0
 10
133.013
 20
17.1463
 11
133.003
 21
17.248
  0
LINE
  8
0
 10
133.003
 20
17.248
 11
133
 21
17.35
  0
LINE
  8
0
 10
133
 20
17.35
 11
133.003
 21
17.452
  0
LINE
  8
0
 10
133.003
 20
17.452
 11
133.013
 21
17.5536
  0
LINE
  8
0
 10
133.013
 20
17.5536
 11
133.029
 21
17.6545
  0
LINE
  8
0
 10
133.029
 20
17.6545
 11
133.051
 21
17.7541
  0
LINE
  8
0
 10
133.051
 20
17.7541
 11
133.08
 21
17.8521
  0
LINE
  8
0
 10
133.08
 20
17.8521
 11
133.114
 21
17.9482
  0
LINE
  8
0
 10
133.114
 20
17.9482
 11
133.155
 21
18.0419
  0
LINE
  8
0
 10
133.155
 20
18.0419
 11
133.201
 21
18.1328
  0
LINE
  8
0
 10
133.201
 20
18.1328
 11
133.253
 21
18.2207
  0
LINE
  8
0
 10
133.253
 20
18.2207
 11
133.31
 21
18.3051
  0
LINE
  8
0
 10
133.31
 20
18.3051
 11
133.373
 21
18.3858
  0
LINE
  8
0
 10
133.373
 20
18.3858
 11
133.44
 21
18.4624
  0
LINE
  8
0
 10
133.44
 20
18.4624
 11
133.513
 21
18.5346
  0
LINE
  8
0
 10
133.513
 20
18.5346
 11
133.589
 21
18.6021
  0
LINE
  8
0
 10
133.589
 20
18.6021
 11
133.67
 21
18.6646
  0
LINE
  8
0
 10
133.67
 20
18.6646
 11
133.754
 21
18.722
  0
LINE
  8
0
 10
133.754
 20
18.722
 11
133.842
 21
18.774
  0
LINE
  8
0
 10
133.842
 20
18.774
 11
133.933
 21
18.8203
  0
LINE
  8
0
 10
133.933
 20
18.8203
 11
134.027
 21
18.8609
  0
LINE
  8
0
 10
134.027
 20
18.8609
 11
134.123
 21
18.8954
  0
LINE
  8
0
 10
134.123
 20
18.8954
 11
134.221
 21
18.9239
  0
LINE
  8
0
 10
134.221
 20
18.9239
 11
134.321
 21
18.9462
  0
LINE
  8
0
 10
134.321
 20
18.9462
 11
134.421
 21
18.9622
  0
LINE
  8
0
 10
134.421
 20
18.9622
 11
134.523
 21
18.9718
  0
LINE
  8
0
 10
134.523
 20
18.9718
 11
134.625
 21
18.975
  0
LINE
  8
0
 10
134.625
 20
18.975
 11
134.727
 21
18.9718
  0
LINE
  8
0
 10
134.727
 20
18.9718
 11
134.829
 21
18.9622
  0
LINE
  8
0
 10
134.829
 20
18.9622
 11
134.93
 21
18.9462
  0
LINE
  8
0
 10
134.93
 20
18.9462
 11
135.029
 21
18.9239
  0
LINE
  8
0
 10
135.029
 20
18.9239
 11
135.127
 21
18.8954
  0
LINE
  8
0
 10
135.127
 20
18.8954
 11
135.223
 21
18.8609
  0
LINE
  8
0
 10
135.223
 20
18.8609
 11
135.317
 21
18.8203
  0
LINE
  8
0
 10
135.317
 20
18.8203
 11
135.408
 21
18.774
  0
LINE
  8
0
 10
135.408
 20
18.774
 11
135.496
 21
18.722
  0
LINE
  8
0
 10
135.496
 20
18.722
 11
135.58
 21
18.6646
  0
LINE
  8
0
 10
135.58
 20
18.6646
 11
135.661
 21
18.6021
  0
LINE
  8
0
 10
135.661
 20
18.6021
 11
135.737
 21
18.5346
  0
LINE
  8
0
 10
135.737
 20
18.5346
 11
135.81
 21
18.4624
  0
LINE
  8
0
 10
135.81
 20
18.4624
 11
135.877
 21
18.3858
  0
LINE
  8
0
 10
135.877
 20
18.3858
 11
135.94
 21
18.3051
  0
LINE
  8
0
 10
135.94
 20
18.3051
 11
135.997
 21
18.2207
  0
LINE
  8
0
 10
135.997
 20
18.2207
 11
136.049
 21
18.1328
  0
LINE
  8
0
 10
136.049
 20
18.1328
 11
136.095
 21
18.0419
  0
LINE
  8
0
 10
136.095
 20
18.0419
 11
136.136
 21
17.9482
  0
LINE
  8
0
 10
136.136
 20
17.9482
 11
136.17
 21
17.8521
  0
LINE
  8
0
 10
136.17
 20
17.8521
 11
136.199
 21
17.7541
  0
LINE
  8
0
 10
136.199
 20
17.7541
 11
136.221
 21
17.6545
  0
LINE
  8
0
 10
136.221
 20
17.6545
 11
136.237
 21
17.5536
  0
LINE
  8
0
 10
136.237
 20
17.5536
 11
136.247
 21
17.452
  0
LINE
  8
0
 10
136.247
 20
17.452
 11
136.25
 21
17.35
  0
LINE
  8
0
 10
136.25
 20
17.35
 11
136.247
 21
17.248
  0
LINE
  8
0
 10
136.247
 20
17.248
 11
136.237
 21
17.1463
  0
LINE
  8
0
 10
136.237
 20
17.1463
 11
136.221
 21
17.0455
  0
LINE
  8
0
 10
136.221
 20
17.0455
 11
136.199
 21
16.9459
  0
LINE
  8
0
 10
136.199
 20
16.9459
 11
136.17
 21
16.8478
  0
LINE
  8
0
 10
136.17
 20
16.8478
 11
136.136
 21
16.7518
  0
LINE
  8
0
 10
136.136
 20
16.7518
 11
136.095
 21
16.6581
  0
LINE
  8
0
 10
136.095
 20
16.6581
 11
136.049
 21
16.5672
  0
LINE
  8
0
 10
136.049
 20
16.5672
 11
135.997
 21
16.4793
  0
LINE
  8
0
 10
135.997
 20
16.4793
 11
135.94
 21
16.3949
  0
LINE
  8
0
 10
135.94
 20
16.3949
 11
135.877
 21
16.3142
  0
LINE
  8
0
 10
135.877
 20
16.3142
 11
135.81
 21
16.2376
  0
LINE
  8
0
 10
135.81
 20
16.2376
 11
135.737
 21
16.1654
  0
LINE
  8
0
 10
135.737
 20
16.1654
 11
135.661
 21
16.0979
  0
LINE
  8
0
 10
135.661
 20
16.0979
 11
135.58
 21
16.0353
  0
LINE
  8
0
 10
135.58
 20
16.0353
 11
135.496
 21
15.978
  0
LINE
  8
0
 10
135.496
 20
15.978
 11
135.408
 21
15.926
  0
LINE
  8
0
 10
135.408
 20
15.926
 11
135.317
 21
15.8797
  0
LINE
  8
0
 10
135.317
 20
15.8797
 11
135.223
 21
15.8391
  0
LINE
  8
0
 10
135.223
 20
15.8391
 11
135.127
 21
15.8045
  0
LINE
  8
0
 10
135.127
 20
15.8045
 11
135.029
 21
15.776
  0
LINE
  8
0
 10
135.029
 20
15.776
 11
134.93
 21
15.7538
  0
LINE
  8
0
 10
134.93
 20
15.7538
 11
134.829
 21
15.7378
  0
LINE
  8
0
 10
134.829
 20
15.7378
 11
134.727
 21
15.7282
  0
LINE
  8
0
 10
134.727
 20
15.7282
 11
134.625
 21
15.725
  0
LINE
  8
0
 10
134.625
 20
15.725
 11
134.523
 21
15.7282
  0
ENDSEC
  0
SECTION
  2
OBJECTS
  0
DICTIONARY
  0
ENDSEC
  0
EOF
